<?xml version="1.0" encoding="UTF-8" standalone="no"?>
<svg width="38px" height="38px" viewBox="0 0 38 38" version="1.1" xmlns="http://www.w3.org/2000/svg" xmlns:xlink="http://www.w3.org/1999/xlink">
    <!-- Generator: Sketch 3.6.1 (26313) - http://www.bohemiancoding.com/sketch -->
    <title>Shape</title>
    <desc>Created with Sketch.</desc>
    <defs></defs>
    <g id="Page-1" stroke="none" stroke-width="1" fill="none" fill-rule="evenodd">
        <path d="M17.498,-3.414 C16.718,-4.195 15.45,-4.195 14.67,-3.414 L-6.237,17.492 C-7.018,18.273 -7.018,19.539 -6.237,20.32 L14.669,41.226 C15.059,41.617 15.571,41.812 16.083,41.812 C16.595,41.812 17.107,41.617 17.497,41.226 C18.278,40.445 18.278,39.179 17.497,38.398 L0.1,21 L43,21 C44.104,21 45,20.104 45,19 C45,17.896 44.104,17 43,17 L-0.088,17 L17.497,-0.586 C18.279,-1.367 18.279,-2.633 17.498,-3.414 L17.498,-3.414 Z" id="Shape" fill="#000000" transform="translate(19.088625, 18.906125) rotate(-315.000000) translate(-19.088625, -18.906125) "></path>
    </g>
</svg>